<mxfile host="Electron" modified="2023-05-20T13:54:08.791Z" agent="Mozilla/5.0 (Windows NT 10.0; Win64; x64) AppleWebKit/537.36 (KHTML, like Gecko) draw.io/21.2.8 Chrome/112.0.5615.165 Electron/24.2.0 Safari/537.36" etag="rNzj1hz8T0zBoj-J-x4h" version="21.2.8" type="device">
  <diagram name="Page-1" id="dbBwslJm7ZMbxF6m-I7I">
    <mxGraphModel dx="450" dy="2100" grid="1" gridSize="10" guides="1" tooltips="1" connect="1" arrows="1" fold="1" page="1" pageScale="1" pageWidth="850" pageHeight="1100" math="0" shadow="0">
      <root>
        <mxCell id="0" />
        <mxCell id="1" parent="0" />
        <mxCell id="mYIpEVnLmI2GDT6M9zvJ-1" value="&lt;h1&gt;EXTINT_init&lt;/h1&gt;&lt;div&gt;&lt;br&gt;&lt;/div&gt;" style="text;html=1;strokeColor=none;fillColor=none;spacing=5;spacingTop=-20;whiteSpace=wrap;overflow=hidden;rounded=0;" parent="1" vertex="1">
          <mxGeometry x="55" width="150" height="40" as="geometry" />
        </mxCell>
        <mxCell id="mYIpEVnLmI2GDT6M9zvJ-4" value="" style="edgeStyle=orthogonalEdgeStyle;rounded=0;orthogonalLoop=1;jettySize=auto;html=1;" parent="1" source="mYIpEVnLmI2GDT6M9zvJ-2" target="mYIpEVnLmI2GDT6M9zvJ-3" edge="1">
          <mxGeometry relative="1" as="geometry" />
        </mxCell>
        <mxCell id="mYIpEVnLmI2GDT6M9zvJ-2" value="START" style="strokeWidth=2;html=1;shape=mxgraph.flowchart.terminator;whiteSpace=wrap;fillColor=#dae8fc;strokeColor=#6c8ebf;fontFamily=Helvetica;" parent="1" vertex="1">
          <mxGeometry x="315" y="70" width="80" height="40" as="geometry" />
        </mxCell>
        <mxCell id="mYIpEVnLmI2GDT6M9zvJ-6" value="" style="edgeStyle=orthogonalEdgeStyle;rounded=0;orthogonalLoop=1;jettySize=auto;html=1;" parent="1" source="mYIpEVnLmI2GDT6M9zvJ-3" target="mYIpEVnLmI2GDT6M9zvJ-5" edge="1">
          <mxGeometry relative="1" as="geometry" />
        </mxCell>
        <mxCell id="mYIpEVnLmI2GDT6M9zvJ-3" value="Initialize returnValue = EXTINT_OK" style="whiteSpace=wrap;html=1;fillColor=#d5e8d4;strokeColor=#82b366;strokeWidth=2;fontFamily=Helvetica;" parent="1" vertex="1">
          <mxGeometry x="280" y="150" width="150" height="40" as="geometry" />
        </mxCell>
        <mxCell id="mYIpEVnLmI2GDT6M9zvJ-8" value="TRUE" style="edgeStyle=orthogonalEdgeStyle;rounded=0;orthogonalLoop=1;jettySize=auto;html=1;" parent="1" source="mYIpEVnLmI2GDT6M9zvJ-5" target="mYIpEVnLmI2GDT6M9zvJ-7" edge="1">
          <mxGeometry relative="1" as="geometry" />
        </mxCell>
        <mxCell id="mYIpEVnLmI2GDT6M9zvJ-21" value="FALSE" style="edgeStyle=orthogonalEdgeStyle;rounded=0;orthogonalLoop=1;jettySize=auto;html=1;" parent="1" source="mYIpEVnLmI2GDT6M9zvJ-5" target="mYIpEVnLmI2GDT6M9zvJ-20" edge="1">
          <mxGeometry relative="1" as="geometry" />
        </mxCell>
        <mxCell id="mYIpEVnLmI2GDT6M9zvJ-5" value="Check on every EXTINT_#&lt;br&gt;&amp;nbsp;in the configurations structure &lt;br&gt;if it is valid or not&amp;nbsp;" style="rhombus;whiteSpace=wrap;html=1;fillColor=#fff2cc;strokeColor=#d6b656;strokeWidth=2;fontFamily=Helvetica;" parent="1" vertex="1">
          <mxGeometry x="240" y="230" width="230" height="100" as="geometry" />
        </mxCell>
        <mxCell id="mYIpEVnLmI2GDT6M9zvJ-17" value="FALSE" style="edgeStyle=orthogonalEdgeStyle;rounded=0;orthogonalLoop=1;jettySize=auto;html=1;" parent="1" source="mYIpEVnLmI2GDT6M9zvJ-7" target="mYIpEVnLmI2GDT6M9zvJ-16" edge="1">
          <mxGeometry relative="1" as="geometry" />
        </mxCell>
        <mxCell id="mYIpEVnLmI2GDT6M9zvJ-28" value="TRUE" style="edgeStyle=orthogonalEdgeStyle;rounded=0;orthogonalLoop=1;jettySize=auto;html=1;" parent="1" source="mYIpEVnLmI2GDT6M9zvJ-7" target="mYIpEVnLmI2GDT6M9zvJ-9" edge="1">
          <mxGeometry relative="1" as="geometry" />
        </mxCell>
        <mxCell id="mYIpEVnLmI2GDT6M9zvJ-7" value="Check on the crossponding&lt;br&gt;sense control choosen" style="rhombus;whiteSpace=wrap;html=1;fillColor=#fff2cc;strokeColor=#d6b656;strokeWidth=2;fontFamily=Helvetica;" parent="1" vertex="1">
          <mxGeometry x="247.5" y="370" width="215" height="80" as="geometry" />
        </mxCell>
        <mxCell id="mYIpEVnLmI2GDT6M9zvJ-13" value="" style="edgeStyle=orthogonalEdgeStyle;rounded=0;orthogonalLoop=1;jettySize=auto;html=1;" parent="1" source="mYIpEVnLmI2GDT6M9zvJ-9" target="mYIpEVnLmI2GDT6M9zvJ-12" edge="1">
          <mxGeometry relative="1" as="geometry" />
        </mxCell>
        <mxCell id="mYIpEVnLmI2GDT6M9zvJ-9" value="Apply Sense Control" style="whiteSpace=wrap;html=1;fillColor=#d5e8d4;strokeColor=#82b366;strokeWidth=2;fontFamily=Helvetica;" parent="1" vertex="1">
          <mxGeometry x="295" y="500" width="120" height="40" as="geometry" />
        </mxCell>
        <mxCell id="mYIpEVnLmI2GDT6M9zvJ-15" value="" style="edgeStyle=orthogonalEdgeStyle;rounded=0;orthogonalLoop=1;jettySize=auto;html=1;" parent="1" source="mYIpEVnLmI2GDT6M9zvJ-12" target="mYIpEVnLmI2GDT6M9zvJ-14" edge="1">
          <mxGeometry relative="1" as="geometry" />
        </mxCell>
        <mxCell id="mYIpEVnLmI2GDT6M9zvJ-12" value="Enable pripheral Interrupt" style="whiteSpace=wrap;html=1;fillColor=#d5e8d4;strokeColor=#82b366;strokeWidth=2;fontFamily=Helvetica;" parent="1" vertex="1">
          <mxGeometry x="295" y="560" width="120" height="40" as="geometry" />
        </mxCell>
        <mxCell id="mYIpEVnLmI2GDT6M9zvJ-25" value="" style="edgeStyle=orthogonalEdgeStyle;rounded=0;orthogonalLoop=1;jettySize=auto;html=1;" parent="1" source="mYIpEVnLmI2GDT6M9zvJ-14" target="mYIpEVnLmI2GDT6M9zvJ-24" edge="1">
          <mxGeometry relative="1" as="geometry" />
        </mxCell>
        <mxCell id="mYIpEVnLmI2GDT6M9zvJ-14" value="Enable global Interrupt" style="whiteSpace=wrap;html=1;fillColor=#d5e8d4;strokeColor=#82b366;strokeWidth=2;fontFamily=Helvetica;" parent="1" vertex="1">
          <mxGeometry x="295" y="620" width="120" height="40" as="geometry" />
        </mxCell>
        <mxCell id="mYIpEVnLmI2GDT6M9zvJ-19" value="" style="edgeStyle=orthogonalEdgeStyle;rounded=0;orthogonalLoop=1;jettySize=auto;html=1;" parent="1" source="mYIpEVnLmI2GDT6M9zvJ-16" target="mYIpEVnLmI2GDT6M9zvJ-18" edge="1">
          <mxGeometry relative="1" as="geometry" />
        </mxCell>
        <mxCell id="mYIpEVnLmI2GDT6M9zvJ-16" value="returnValue = EXTINT_NOK" style="whiteSpace=wrap;html=1;fillColor=#d5e8d4;strokeColor=#82b366;strokeWidth=2;" parent="1" vertex="1">
          <mxGeometry x="500" y="485" width="120" height="60" as="geometry" />
        </mxCell>
        <mxCell id="mYIpEVnLmI2GDT6M9zvJ-36" style="edgeStyle=orthogonalEdgeStyle;rounded=0;orthogonalLoop=1;jettySize=auto;html=1;" parent="1" source="mYIpEVnLmI2GDT6M9zvJ-18" target="mYIpEVnLmI2GDT6M9zvJ-32" edge="1">
          <mxGeometry relative="1" as="geometry">
            <Array as="points">
              <mxPoint x="560" y="760" />
              <mxPoint x="355" y="760" />
            </Array>
          </mxGeometry>
        </mxCell>
        <mxCell id="mYIpEVnLmI2GDT6M9zvJ-18" value="break;" style="whiteSpace=wrap;html=1;fillColor=#d5e8d4;strokeColor=#82b366;strokeWidth=2;" parent="1" vertex="1">
          <mxGeometry x="525" y="570" width="70" height="30" as="geometry" />
        </mxCell>
        <mxCell id="mYIpEVnLmI2GDT6M9zvJ-31" value="" style="edgeStyle=orthogonalEdgeStyle;rounded=0;orthogonalLoop=1;jettySize=auto;html=1;" parent="1" source="mYIpEVnLmI2GDT6M9zvJ-20" target="mYIpEVnLmI2GDT6M9zvJ-22" edge="1">
          <mxGeometry relative="1" as="geometry" />
        </mxCell>
        <mxCell id="mYIpEVnLmI2GDT6M9zvJ-20" value="returnValue = EXTINT_NOK" style="whiteSpace=wrap;html=1;fillColor=#d5e8d4;strokeColor=#82b366;strokeWidth=2;" parent="1" vertex="1">
          <mxGeometry x="110" y="485" width="120" height="60" as="geometry" />
        </mxCell>
        <mxCell id="mYIpEVnLmI2GDT6M9zvJ-34" style="edgeStyle=orthogonalEdgeStyle;rounded=0;orthogonalLoop=1;jettySize=auto;html=1;" parent="1" source="mYIpEVnLmI2GDT6M9zvJ-22" target="mYIpEVnLmI2GDT6M9zvJ-32" edge="1">
          <mxGeometry relative="1" as="geometry">
            <Array as="points">
              <mxPoint x="170" y="760" />
              <mxPoint x="355" y="760" />
            </Array>
          </mxGeometry>
        </mxCell>
        <mxCell id="mYIpEVnLmI2GDT6M9zvJ-22" value="break;" style="whiteSpace=wrap;html=1;fillColor=#d5e8d4;strokeColor=#82b366;strokeWidth=2;" parent="1" vertex="1">
          <mxGeometry x="135" y="570" width="70" height="30" as="geometry" />
        </mxCell>
        <mxCell id="mYIpEVnLmI2GDT6M9zvJ-33" value="" style="edgeStyle=orthogonalEdgeStyle;rounded=0;orthogonalLoop=1;jettySize=auto;html=1;" parent="1" source="mYIpEVnLmI2GDT6M9zvJ-24" target="mYIpEVnLmI2GDT6M9zvJ-32" edge="1">
          <mxGeometry relative="1" as="geometry" />
        </mxCell>
        <mxCell id="mYIpEVnLmI2GDT6M9zvJ-24" value="returnValue = EXTINT_OK" style="whiteSpace=wrap;html=1;fillColor=#d5e8d4;strokeColor=#82b366;strokeWidth=2;fontFamily=Helvetica;" parent="1" vertex="1">
          <mxGeometry x="295" y="680" width="120" height="40" as="geometry" />
        </mxCell>
        <mxCell id="mYIpEVnLmI2GDT6M9zvJ-38" value="" style="edgeStyle=orthogonalEdgeStyle;rounded=0;orthogonalLoop=1;jettySize=auto;html=1;" parent="1" source="mYIpEVnLmI2GDT6M9zvJ-32" target="mYIpEVnLmI2GDT6M9zvJ-37" edge="1">
          <mxGeometry relative="1" as="geometry" />
        </mxCell>
        <mxCell id="mYIpEVnLmI2GDT6M9zvJ-32" value="return retuenValue" style="whiteSpace=wrap;html=1;fillColor=#d5e8d4;strokeColor=#82b366;strokeWidth=2;fontFamily=Helvetica;" parent="1" vertex="1">
          <mxGeometry x="295" y="790" width="120" height="40" as="geometry" />
        </mxCell>
        <mxCell id="mYIpEVnLmI2GDT6M9zvJ-37" value="END" style="strokeWidth=2;html=1;shape=mxgraph.flowchart.terminator;whiteSpace=wrap;fillColor=#dae8fc;strokeColor=#6c8ebf;fontFamily=Helvetica;" parent="1" vertex="1">
          <mxGeometry x="315" y="860" width="80" height="40" as="geometry" />
        </mxCell>
        <mxCell id="mYIpEVnLmI2GDT6M9zvJ-39" value="&lt;h1&gt;EXTINT_setCallBack&lt;/h1&gt;&lt;div&gt;&lt;br&gt;&lt;/div&gt;" style="text;html=1;strokeColor=none;fillColor=none;spacing=5;spacingTop=-20;whiteSpace=wrap;overflow=hidden;rounded=0;" parent="1" vertex="1">
          <mxGeometry x="730" width="257" height="40" as="geometry" />
        </mxCell>
        <mxCell id="mYIpEVnLmI2GDT6M9zvJ-40" value="" style="edgeStyle=orthogonalEdgeStyle;rounded=0;orthogonalLoop=1;jettySize=auto;html=1;" parent="1" source="mYIpEVnLmI2GDT6M9zvJ-41" target="mYIpEVnLmI2GDT6M9zvJ-43" edge="1">
          <mxGeometry relative="1" as="geometry" />
        </mxCell>
        <mxCell id="mYIpEVnLmI2GDT6M9zvJ-41" value="START" style="strokeWidth=2;html=1;shape=mxgraph.flowchart.terminator;whiteSpace=wrap;fillColor=#dae8fc;strokeColor=#6c8ebf;fontFamily=Helvetica;" parent="1" vertex="1">
          <mxGeometry x="998" y="70" width="80" height="40" as="geometry" />
        </mxCell>
        <mxCell id="mYIpEVnLmI2GDT6M9zvJ-42" value="" style="edgeStyle=orthogonalEdgeStyle;rounded=0;orthogonalLoop=1;jettySize=auto;html=1;" parent="1" source="mYIpEVnLmI2GDT6M9zvJ-43" target="mYIpEVnLmI2GDT6M9zvJ-46" edge="1">
          <mxGeometry relative="1" as="geometry" />
        </mxCell>
        <mxCell id="mYIpEVnLmI2GDT6M9zvJ-43" value="Initialize returnValue = &lt;br&gt;EXTINT_OK" style="whiteSpace=wrap;html=1;fillColor=#d5e8d4;strokeColor=#82b366;strokeWidth=2;fontFamily=Helvetica;" parent="1" vertex="1">
          <mxGeometry x="963" y="150" width="150" height="40" as="geometry" />
        </mxCell>
        <mxCell id="mYIpEVnLmI2GDT6M9zvJ-44" value="TRUE" style="edgeStyle=orthogonalEdgeStyle;rounded=0;orthogonalLoop=1;jettySize=auto;html=1;" parent="1" source="mYIpEVnLmI2GDT6M9zvJ-46" target="mYIpEVnLmI2GDT6M9zvJ-49" edge="1">
          <mxGeometry relative="1" as="geometry" />
        </mxCell>
        <mxCell id="mYIpEVnLmI2GDT6M9zvJ-45" value="FALSE" style="edgeStyle=orthogonalEdgeStyle;rounded=0;orthogonalLoop=1;jettySize=auto;html=1;" parent="1" source="mYIpEVnLmI2GDT6M9zvJ-46" target="mYIpEVnLmI2GDT6M9zvJ-61" edge="1">
          <mxGeometry relative="1" as="geometry" />
        </mxCell>
        <mxCell id="mYIpEVnLmI2GDT6M9zvJ-46" value="Check on every EXTINT_#&lt;br&gt;&amp;nbsp;in the configurations structure &lt;br&gt;if it is valid or not&amp;nbsp;" style="rhombus;whiteSpace=wrap;html=1;fillColor=#fff2cc;strokeColor=#d6b656;strokeWidth=2;fontFamily=Helvetica;" parent="1" vertex="1">
          <mxGeometry x="923" y="230" width="230" height="100" as="geometry" />
        </mxCell>
        <mxCell id="mYIpEVnLmI2GDT6M9zvJ-47" value="FALSE" style="edgeStyle=orthogonalEdgeStyle;rounded=0;orthogonalLoop=1;jettySize=auto;html=1;" parent="1" source="mYIpEVnLmI2GDT6M9zvJ-49" target="mYIpEVnLmI2GDT6M9zvJ-57" edge="1">
          <mxGeometry relative="1" as="geometry" />
        </mxCell>
        <mxCell id="mYIpEVnLmI2GDT6M9zvJ-48" value="TRUE" style="edgeStyle=orthogonalEdgeStyle;rounded=0;orthogonalLoop=1;jettySize=auto;html=1;" parent="1" source="mYIpEVnLmI2GDT6M9zvJ-49" target="mYIpEVnLmI2GDT6M9zvJ-51" edge="1">
          <mxGeometry relative="1" as="geometry" />
        </mxCell>
        <mxCell id="mYIpEVnLmI2GDT6M9zvJ-49" value="Check if function pointer&lt;br&gt;&amp;nbsp;is not pointing to null" style="rhombus;whiteSpace=wrap;html=1;fillColor=#fff2cc;strokeColor=#d6b656;strokeWidth=2;fontFamily=Helvetica;" parent="1" vertex="1">
          <mxGeometry x="930.5" y="370" width="215" height="80" as="geometry" />
        </mxCell>
        <mxCell id="mYIpEVnLmI2GDT6M9zvJ-69" value="" style="edgeStyle=orthogonalEdgeStyle;rounded=0;orthogonalLoop=1;jettySize=auto;html=1;" parent="1" source="mYIpEVnLmI2GDT6M9zvJ-51" target="mYIpEVnLmI2GDT6M9zvJ-65" edge="1">
          <mxGeometry relative="1" as="geometry" />
        </mxCell>
        <mxCell id="mYIpEVnLmI2GDT6M9zvJ-51" value="Save recieved function pointer in call back variable corresponding to the EXTINT_# received" style="whiteSpace=wrap;html=1;fillColor=#d5e8d4;strokeColor=#82b366;strokeWidth=2;fontFamily=Helvetica;" parent="1" vertex="1">
          <mxGeometry x="978" y="485" width="120" height="100" as="geometry" />
        </mxCell>
        <mxCell id="mYIpEVnLmI2GDT6M9zvJ-56" value="" style="edgeStyle=orthogonalEdgeStyle;rounded=0;orthogonalLoop=1;jettySize=auto;html=1;" parent="1" source="mYIpEVnLmI2GDT6M9zvJ-57" target="mYIpEVnLmI2GDT6M9zvJ-59" edge="1">
          <mxGeometry relative="1" as="geometry" />
        </mxCell>
        <mxCell id="mYIpEVnLmI2GDT6M9zvJ-57" value="returnValue = EXTINT_NOK" style="whiteSpace=wrap;html=1;fillColor=#d5e8d4;strokeColor=#82b366;strokeWidth=2;" parent="1" vertex="1">
          <mxGeometry x="1183" y="485" width="120" height="60" as="geometry" />
        </mxCell>
        <mxCell id="mYIpEVnLmI2GDT6M9zvJ-58" style="edgeStyle=orthogonalEdgeStyle;rounded=0;orthogonalLoop=1;jettySize=auto;html=1;" parent="1" source="mYIpEVnLmI2GDT6M9zvJ-59" target="mYIpEVnLmI2GDT6M9zvJ-67" edge="1">
          <mxGeometry relative="1" as="geometry">
            <Array as="points">
              <mxPoint x="1243" y="760" />
              <mxPoint x="1038" y="760" />
            </Array>
          </mxGeometry>
        </mxCell>
        <mxCell id="mYIpEVnLmI2GDT6M9zvJ-59" value="break;" style="whiteSpace=wrap;html=1;fillColor=#d5e8d4;strokeColor=#82b366;strokeWidth=2;" parent="1" vertex="1">
          <mxGeometry x="1208" y="570" width="70" height="30" as="geometry" />
        </mxCell>
        <mxCell id="mYIpEVnLmI2GDT6M9zvJ-60" value="" style="edgeStyle=orthogonalEdgeStyle;rounded=0;orthogonalLoop=1;jettySize=auto;html=1;" parent="1" source="mYIpEVnLmI2GDT6M9zvJ-61" target="mYIpEVnLmI2GDT6M9zvJ-63" edge="1">
          <mxGeometry relative="1" as="geometry" />
        </mxCell>
        <mxCell id="mYIpEVnLmI2GDT6M9zvJ-61" value="returnValue = EXTINT_NOK" style="whiteSpace=wrap;html=1;fillColor=#d5e8d4;strokeColor=#82b366;strokeWidth=2;" parent="1" vertex="1">
          <mxGeometry x="793" y="485" width="120" height="60" as="geometry" />
        </mxCell>
        <mxCell id="mYIpEVnLmI2GDT6M9zvJ-62" style="edgeStyle=orthogonalEdgeStyle;rounded=0;orthogonalLoop=1;jettySize=auto;html=1;" parent="1" source="mYIpEVnLmI2GDT6M9zvJ-63" target="mYIpEVnLmI2GDT6M9zvJ-67" edge="1">
          <mxGeometry relative="1" as="geometry">
            <Array as="points">
              <mxPoint x="853" y="760" />
              <mxPoint x="1038" y="760" />
            </Array>
          </mxGeometry>
        </mxCell>
        <mxCell id="mYIpEVnLmI2GDT6M9zvJ-63" value="break;" style="whiteSpace=wrap;html=1;fillColor=#d5e8d4;strokeColor=#82b366;strokeWidth=2;" parent="1" vertex="1">
          <mxGeometry x="818" y="570" width="70" height="30" as="geometry" />
        </mxCell>
        <mxCell id="mYIpEVnLmI2GDT6M9zvJ-64" value="" style="edgeStyle=orthogonalEdgeStyle;rounded=0;orthogonalLoop=1;jettySize=auto;html=1;" parent="1" source="mYIpEVnLmI2GDT6M9zvJ-65" target="mYIpEVnLmI2GDT6M9zvJ-67" edge="1">
          <mxGeometry relative="1" as="geometry" />
        </mxCell>
        <mxCell id="mYIpEVnLmI2GDT6M9zvJ-65" value="returnValue = EXTINT_OK" style="whiteSpace=wrap;html=1;fillColor=#d5e8d4;strokeColor=#82b366;strokeWidth=2;fontFamily=Helvetica;" parent="1" vertex="1">
          <mxGeometry x="979" y="670" width="120" height="40" as="geometry" />
        </mxCell>
        <mxCell id="mYIpEVnLmI2GDT6M9zvJ-66" value="" style="edgeStyle=orthogonalEdgeStyle;rounded=0;orthogonalLoop=1;jettySize=auto;html=1;" parent="1" source="mYIpEVnLmI2GDT6M9zvJ-67" target="mYIpEVnLmI2GDT6M9zvJ-68" edge="1">
          <mxGeometry relative="1" as="geometry" />
        </mxCell>
        <mxCell id="mYIpEVnLmI2GDT6M9zvJ-67" value="return retuenValue" style="whiteSpace=wrap;html=1;fillColor=#d5e8d4;strokeColor=#82b366;strokeWidth=2;fontFamily=Helvetica;" parent="1" vertex="1">
          <mxGeometry x="978" y="790" width="120" height="40" as="geometry" />
        </mxCell>
        <mxCell id="mYIpEVnLmI2GDT6M9zvJ-68" value="END" style="strokeWidth=2;html=1;shape=mxgraph.flowchart.terminator;whiteSpace=wrap;fillColor=#dae8fc;strokeColor=#6c8ebf;fontFamily=Helvetica;" parent="1" vertex="1">
          <mxGeometry x="998" y="860" width="80" height="40" as="geometry" />
        </mxCell>
        <mxCell id="mYIpEVnLmI2GDT6M9zvJ-70" value="&lt;h1&gt;ISR(EXT_INT_#)&lt;/h1&gt;" style="text;html=1;strokeColor=none;fillColor=none;spacing=5;spacingTop=-20;whiteSpace=wrap;overflow=hidden;rounded=0;" parent="1" vertex="1">
          <mxGeometry x="112" y="960" width="211" height="40" as="geometry" />
        </mxCell>
        <mxCell id="mYIpEVnLmI2GDT6M9zvJ-73" value="" style="edgeStyle=orthogonalEdgeStyle;rounded=0;orthogonalLoop=1;jettySize=auto;html=1;" parent="1" source="mYIpEVnLmI2GDT6M9zvJ-71" target="mYIpEVnLmI2GDT6M9zvJ-72" edge="1">
          <mxGeometry relative="1" as="geometry" />
        </mxCell>
        <mxCell id="mYIpEVnLmI2GDT6M9zvJ-71" value="START" style="strokeWidth=2;html=1;shape=mxgraph.flowchart.terminator;whiteSpace=wrap;fillColor=#dae8fc;strokeColor=#6c8ebf;fontFamily=Helvetica;" parent="1" vertex="1">
          <mxGeometry x="314" y="1041" width="80" height="40" as="geometry" />
        </mxCell>
        <mxCell id="mYIpEVnLmI2GDT6M9zvJ-75" value="TRUE" style="edgeStyle=orthogonalEdgeStyle;rounded=0;orthogonalLoop=1;jettySize=auto;html=1;" parent="1" source="mYIpEVnLmI2GDT6M9zvJ-72" target="mYIpEVnLmI2GDT6M9zvJ-74" edge="1">
          <mxGeometry relative="1" as="geometry" />
        </mxCell>
        <mxCell id="mYIpEVnLmI2GDT6M9zvJ-83" value="FALSE" style="edgeStyle=orthogonalEdgeStyle;rounded=0;orthogonalLoop=1;jettySize=auto;html=1;" parent="1" source="mYIpEVnLmI2GDT6M9zvJ-72" target="mYIpEVnLmI2GDT6M9zvJ-76" edge="1">
          <mxGeometry x="-0.443" relative="1" as="geometry">
            <Array as="points">
              <mxPoint x="480" y="1161" />
              <mxPoint x="480" y="1331" />
              <mxPoint x="355" y="1331" />
            </Array>
            <mxPoint as="offset" />
          </mxGeometry>
        </mxCell>
        <mxCell id="mYIpEVnLmI2GDT6M9zvJ-72" value="Checks if the callBack&lt;br&gt;&amp;nbsp;function is not &lt;br&gt;pointing to null" style="rhombus;whiteSpace=wrap;html=1;fillColor=#fff2cc;strokeColor=#d6b656;strokeWidth=2;" parent="1" vertex="1">
          <mxGeometry x="253" y="1111" width="204" height="100" as="geometry" />
        </mxCell>
        <mxCell id="mYIpEVnLmI2GDT6M9zvJ-82" value="" style="edgeStyle=orthogonalEdgeStyle;rounded=0;orthogonalLoop=1;jettySize=auto;html=1;" parent="1" source="mYIpEVnLmI2GDT6M9zvJ-74" target="mYIpEVnLmI2GDT6M9zvJ-76" edge="1">
          <mxGeometry relative="1" as="geometry" />
        </mxCell>
        <mxCell id="mYIpEVnLmI2GDT6M9zvJ-74" value="Call callback() function to execute" style="whiteSpace=wrap;html=1;fillColor=#d5e8d4;strokeColor=#82b366;strokeWidth=2;" parent="1" vertex="1">
          <mxGeometry x="295" y="1251" width="120" height="60" as="geometry" />
        </mxCell>
        <mxCell id="mYIpEVnLmI2GDT6M9zvJ-76" value="END" style="strokeWidth=2;html=1;shape=mxgraph.flowchart.terminator;whiteSpace=wrap;fillColor=#dae8fc;strokeColor=#6c8ebf;fontFamily=Helvetica;" parent="1" vertex="1">
          <mxGeometry x="315" y="1347" width="80" height="40" as="geometry" />
        </mxCell>
      </root>
    </mxGraphModel>
  </diagram>
</mxfile>
